<svg width="33" height="33" viewBox="0 0 33 33" fill="none" xmlns="http://www.w3.org/2000/svg">
<path d="M23.5344 6.64862C24.0448 6.64953 24.5341 6.85247 24.8954 7.21307C25.2566 7.57367 25.4605 8.06262 25.4623 8.57304V26.9176C25.4605 27.428 25.2566 27.9169 24.8954 28.2775C24.5341 28.6381 24.0448 28.8411 23.5344 28.842H9.46598C8.95555 28.8411 8.46624 28.6381 8.10499 28.2775C7.74374 27.9169 7.53992 27.428 7.53809 26.9176V8.57304C7.53992 8.06262 7.74374 7.57367 8.10499 7.21307C8.46624 6.85247 8.95555 6.64953 9.46598 6.64862H10.1868V8.57304H9.46772L9.46424 8.57651V26.9141L9.46772 26.9176H23.5327L23.5361 26.9141V8.57651L23.5327 8.57304H22.8136V6.64862H23.5344ZM21.8323 13.728H10.977V15.6524H21.8323V13.728ZM21.8323 17.787H10.977V19.7114H21.8323V17.787ZM21.8323 21.846H10.977V23.7704H21.8323V21.846ZM20.8892 6.3273V8.49836C20.8892 8.71732 20.8023 8.92734 20.6477 9.08233C20.493 9.23733 20.2832 9.32463 20.0642 9.32509H12.9362C12.7175 9.32463 12.508 9.23757 12.3533 9.08295C12.1987 8.92833 12.1116 8.71876 12.1112 8.50009V6.32904C12.1112 6.11008 12.1981 5.90006 12.3527 5.74506C12.5074 5.59007 12.7172 5.50276 12.9362 5.5023H14.1468V3.24788C14.1472 3.02922 14.2343 2.81964 14.3889 2.66503C14.5435 2.51041 14.7531 2.42334 14.9718 2.42288H18.0286C18.2473 2.42334 18.4568 2.51041 18.6115 2.66503C18.7661 2.81964 18.8532 3.02922 18.8536 3.24788V5.50578H20.0642C20.2826 5.50623 20.4919 5.59306 20.6464 5.74731C20.801 5.90155 20.8883 6.11068 20.8892 6.32904V6.3273ZM17.4555 4.63736C17.4555 4.44705 17.399 4.26102 17.2933 4.10278C17.1876 3.94455 17.0373 3.82122 16.8615 3.74839C16.6856 3.67556 16.4922 3.65651 16.3055 3.69363C16.1189 3.73076 15.9474 3.8224 15.8129 3.95697C15.6783 4.09154 15.5866 4.26299 15.5495 4.44964C15.5124 4.63629 15.5314 4.82976 15.6043 5.00558C15.6771 5.1814 15.8004 5.33168 15.9587 5.4374C16.1169 5.54313 16.3029 5.59957 16.4932 5.59957C16.7484 5.59957 16.9932 5.49819 17.1736 5.31774C17.3541 5.13729 17.4555 4.89255 17.4555 4.63736Z" fill="#E5E5E5"/>
</svg>
