<svg width="24" height="24" viewBox="0 0 24 24" fill="none" xmlns="http://www.w3.org/2000/svg">
    <g clip-path="url(#clip0_98_196)">
        <path d="M11.914 5.00002C13.295 5.00002 14.414 3.88102 14.414 2.50003C14.414 1.119 13.295 0 11.914 0C10.5331 0 9.41406 1.119 9.41406 2.49998C9.41406 3.88102 10.5331 5.00002 11.914 5.00002Z" fill="#E5E5E5"/>
        <path d="M19 6C20.381 6 21.5 4.881 21.5 3.50002C21.5 2.12001 20.381 1.00003 19 1.00003C17.619 1.00003 16.5 2.11903 16.5 3.50002C16.5 4.881 17.619 6 19 6Z" fill="#E5E5E5"/>
        <path d="M4.99998 6C6.38097 6 7.49997 4.881 7.49997 3.50002C7.49997 2.12001 6.38097 1.00003 4.99998 1.00003C3.619 1.00003 2.5 2.12001 2.5 3.50002C2.5 4.881 3.619 6 4.99998 6Z" fill="#E5E5E5"/>
        <path d="M23.3554 14.315L22.7144 9.19003C22.5584 7.94203 21.4924 7.00003 20.2343 7.00003H17.7653C17.5293 7.00003 17.2893 7.03903 17.0324 7.12003C16.7764 7.20005 16.6283 7.46803 16.6994 7.72702C16.7504 7.91803 16.7974 8.112 16.8224 8.328L17.4764 13.006C17.5553 13.694 17.3804 14.375 16.9853 14.922C16.9043 15.035 16.8734 15.176 16.9004 15.312L17.4724 18.21C17.5594 18.651 17.4454 19.104 17.1594 19.452C17.0194 19.622 16.8464 19.757 16.6464 19.853C16.4754 19.935 16.3654 20.106 16.3614 20.295L16.3594 20.535L16.5024 22.535C16.5214 22.797 16.7384 23 17.0014 23H21.0014C21.2633 23 21.4814 22.797 21.5003 22.536L21.9674 15.997C22.3613 15.971 22.7303 15.791 22.9934 15.493C23.2763 15.17 23.4094 14.742 23.3554 14.315Z" fill="#E5E5E5"/>
        <path d="M16.4915 18.404L15.7665 14.733C16.2655 14.408 16.5615 13.802 16.4875 13.157L15.8265 8.42902C15.6685 7.044 14.5725 6 13.2775 6H10.7235C9.4285 6 8.33153 7.044 8.17553 8.415L7.51155 13.168C7.43856 13.802 7.73453 14.407 8.23356 14.731L7.50855 18.402C7.47953 18.548 7.51755 18.701 7.61256 18.816C7.70758 18.932 7.84956 19 7.99858 19H9.69859L10.5066 23.587C10.5486 23.826 10.7566 24 10.9986 24H12.9986C13.2416 24 13.4486 23.826 13.4906 23.587L14.3006 19H16.0006C16.1496 19 16.2926 18.933 16.3866 18.817C16.4815 18.703 16.5205 18.55 16.4915 18.404Z" fill="#E5E5E5"/>
        <path d="M7.35328 19.852C7.15326 19.756 6.98128 19.622 6.84229 19.453C6.55631 19.104 6.44231 18.652 6.52931 18.21L7.10029 15.318C7.12729 15.181 7.09631 15.039 7.01329 14.926C6.61828 14.385 6.44231 13.721 6.51731 13.069L7.18729 8.26599C7.19128 8.22601 7.20229 8.18898 7.21129 8.15101L7.24228 8.01099C7.24828 7.97598 7.25128 7.93998 7.25029 7.90398L7.23928 7.55696C7.23229 7.33594 7.08028 7.14498 6.86629 7.08896C6.63529 7.02896 6.43528 7.00098 6.23531 7.00098H3.76626C2.50828 7.00098 1.44126 7.94199 1.28625 9.19098L0.645279 14.315C0.592263 14.742 0.724263 15.171 1.00926 15.494C1.27228 15.792 1.64128 15.972 2.03526 15.998L2.50228 22.537C2.52126 22.799 2.73829 23.0011 3.00126 23.0011H7.00125C7.26323 23.0011 7.48125 22.798 7.50023 22.537L7.64423 20.485L7.63823 20.288C7.63026 20.101 7.52128 19.932 7.35328 19.852Z" fill="#E5E5E5"/>
    </g>
    <defs>
        <clipPath id="clip0_98_196">
            <rect width="24" height="24" fill="white"/>
        </clipPath>
    </defs>
</svg>
