<svg width="25" height="25" viewBox="0 0 25 25" fill="none" xmlns="http://www.w3.org/2000/svg">
<path fill-rule="evenodd" clip-rule="evenodd" d="M12.4994 16.6667C10.2169 16.6667 8.36775 14.8017 8.36775 12.5C8.36775 10.1983 10.2169 8.33333 12.4994 8.33333C14.7819 8.33333 16.6319 10.1983 16.6319 12.5C16.6319 14.8017 14.7819 16.6667 12.4994 16.6667ZM24.1727 15.4467L22.2369 14.32C22.3452 13.7283 22.4169 13.1242 22.4169 12.5C22.4169 11.8767 22.3452 11.2717 22.2369 10.68L24.1727 9.55332C24.9636 9.09332 25.2336 8.07333 24.7769 7.27666L23.1244 4.39C22.6686 3.59334 21.6569 3.31918 20.8669 3.78001L18.9111 4.9175C17.9977 4.13417 16.9594 3.49333 15.8053 3.08083V1.66667C15.8053 0.746667 15.0653 0 14.1519 0H10.8469C9.93358 0 9.19358 0.746667 9.19358 1.66667V3.08083C8.03941 3.49333 7.00108 4.13417 6.08775 4.9175L4.13191 3.78001C3.34191 3.31918 2.33025 3.59334 1.87442 4.39L0.221914 7.27666C-0.234753 8.07333 0.036079 9.09332 0.826079 9.55332L2.76192 10.68C2.65358 11.2717 2.58191 11.8767 2.58191 12.5C2.58191 13.1242 2.65358 13.7283 2.76192 14.32L0.826079 15.4467C0.036079 15.9067 -0.234753 16.9267 0.221914 17.7233L1.87442 20.61C2.33025 21.4067 3.34191 21.6808 4.13191 21.22L6.08775 20.0825C7.00108 20.8658 8.03941 21.5075 9.19358 21.9192V23.3333C9.19358 24.2533 9.93358 25 10.8469 25H14.1519C15.0653 25 15.8053 24.2533 15.8053 23.3333V21.9192C16.9594 21.5075 17.9977 20.8658 18.9111 20.0825L20.8669 21.22C21.6569 21.6808 22.6686 21.4067 23.1244 20.61L24.7769 17.7233C25.2336 16.9267 24.9636 15.9067 24.1727 15.4467ZM12.4994 10C11.1302 10 10.0203 11.12 10.0203 12.5C10.0203 13.8808 11.1302 15 12.4994 15C13.8686 15 14.9786 13.8808 14.9786 12.5C14.9786 11.12 13.8686 10 12.4994 10Z" fill="#E5E5E5"/>
</svg>
